<svg width="412.77503662109376px" height="122px" xmlns="http://www.w3.org/2000/svg" viewBox="43.61248168945312 14 412.77503662109376 122" style="background: rgba(0, 0, 0, 0);" preserveAspectRatio="xMidYMid"><defs><filter id="editing-extrusion" x="-100%" y="-100%" width="300%" height="300%"><feFlood result="color1" flood-color="#444"></feFlood><feConvolveMatrix order="1,1" divisor="1" kernelMatrix="1" in="SourceAlpha" result="extrude"></feConvolveMatrix><feComposite in="color1" in2="extrude" result="comp-extrude" operator="in"></feComposite><feOffset dx="0.5" dy="0.5" in="comp-extrude" result="offset-extrude"></feOffset><feMerge><feMergeNode in="offset-extrude"></feMergeNode><feMergeNode in="SourceGraphic"></feMergeNode></feMerge></filter></defs><g filter="url(#editing-extrusion)"><g transform="translate(106.65263187885284, 104.79000091552734)"><path d="M6.53 0L-0.83 0L10.75-42.24L24.13-42.24L27.07-18.11L38.98-42.24L50.18-42.24L51.33-10.62L51.33-10.62Q51.58-4.35 54.66-2.43L54.66-2.43L54.66-2.43Q53.95-1.15 51.90 0.06L51.90 0.06L51.90 0.06Q49.86 1.28 47.14 1.28L47.14 1.28L47.14 1.28Q44.42 1.28 42.82 0.51L42.82 0.51L42.82 0.51Q41.22-0.26 40.32-1.54L40.32-1.54L40.32-1.54Q38.72-3.84 38.72-8.26L38.72-8.26L38.72-28.03L26.11 0L18.18 0L13.70-28.74L6.53 0ZM77.76-7.23L77.76-7.23L77.76-7.23Q74.43-3.78 68.35-3.78L68.35-3.78L68.35-3.78Q60.74-3.78 59.14-9.34L59.14-9.34L59.14-9.34Q58.62-11.01 58.62-12.86L58.62-12.86L58.62-12.86Q58.62-14.72 59.01-16.64L59.01-16.64L62.02-32.64L75.01-33.92L71.49-15.30L71.49-15.30Q71.36-14.46 71.17-13.57L71.17-13.57L71.17-13.57Q70.98-12.67 70.98-11.74L70.98-11.74L70.98-11.74Q70.98-10.82 71.30-10.21L71.30-10.21L71.30-10.21Q71.62-9.60 72.06-9.22L72.06-9.22L72.06-9.22Q72.83-8.70 74.21-8.70L74.21-8.70L74.21-8.70Q75.58-8.70 76.77-10.37L76.77-10.37L76.77-10.37Q77.95-12.03 78.53-14.91L78.53-14.91L82.05-32.64L94.66-33.92L89.86-8.77L89.86-8.77Q87.49 3.52 82.62 8.38L82.62 8.38L82.62 8.38Q80.13 10.88 76.90 11.87L76.90 11.87L76.90 11.87Q73.66 12.86 69.50 12.86L69.50 12.86L69.50 12.86Q62.78 12.86 58.94 10.75L58.94 10.75L58.94 10.75Q55.10 8.64 55.10 5.12L55.10 5.12L55.10 5.12Q55.10 2.50 57.09 0.99L57.09 0.99L57.09 0.99Q59.07-0.51 62.14-0.51L62.14-0.51L62.14-0.51Q64.83-0.51 66.88 0.64L66.88 0.64L66.88 0.64Q68.10 1.34 68.67 2.24L68.67 2.24L68.67 2.24Q67.20 3.52 67.20 5.63L67.20 5.63L67.20 5.63Q67.20 8.45 69.76 8.45L69.76 8.45L69.76 8.45Q73.98 8.45 76.42-1.28L76.42-1.28L76.42-1.28Q77.12-4.16 77.76-7.23ZM124.03 1.28L124.03 1.28L124.03 1.28Q116.29 1.28 116.29-4.74L116.29-4.74L116.29-4.74Q116.35-6.40 116.86-9.22L116.86-9.22L118.02-15.10L118.02-15.10Q119.74-23.42 119.74-25.28L119.74-25.28L119.74-25.28Q119.74-28.99 117.57-28.99L117.57-28.99L117.57-28.99Q113.92-28.99 112-19.46L112-19.46L108.22 0L95.36 1.28L102.02-32.70L112.51-33.92L111.49-27.65L111.49-27.65Q114.50-33.92 123.71-33.92L123.71-33.92L123.71-33.92Q128.19-33.92 130.08-32.03L130.08-32.03L130.08-32.03Q131.97-30.14 131.97-25.92L131.97-25.92L131.97-25.92Q131.97-21.95 129.92-12.67L129.92-12.67L129.92-12.67Q128.96-8.51 128.96-6.94L128.96-6.94L128.96-6.94Q128.96-5.38 129.82-4.48L129.82-4.48L129.82-4.48Q130.69-3.58 131.97-3.46L131.97-3.46L131.97-3.46Q131.33-1.28 129.12 0L129.12 0L129.12 0Q126.91 1.28 124.03 1.28ZM139.87-1.92L139.87-1.92L139.87-1.92Q138.37-3.58 137.70-6.21L137.70-6.21L137.70-6.21Q137.02-8.83 137.02-13.12L137.02-13.12L137.02-13.12Q137.02-17.41 138.50-21.31L138.50-21.31L138.50-21.31Q139.97-25.22 142.66-28.03L142.66-28.03L142.66-28.03Q148.16-33.92 157.25-33.92L157.25-33.92L157.25-33.92Q160.51-33.92 162.88-32.83L162.88-32.83L173.82-33.92L169.09-8.96L169.09-8.96Q168.90-8.19 168.90-6.78L168.90-6.78L168.90-6.78Q168.90-5.38 169.76-4.48L169.76-4.48L169.76-4.48Q170.62-3.58 171.90-3.46L171.90-3.46L171.90-3.46Q171.26-1.28 168.93 0L168.93 0L168.93 0Q166.59 1.28 163.97 1.28L163.97 1.28L163.97 1.28Q161.34 1.28 159.58 0.29L159.58 0.29L159.58 0.29Q157.82-0.70 157.31-2.37L157.31-2.37L157.31-2.37Q156.29-0.77 154.11 0.26L154.11 0.26L154.11 0.26Q151.94 1.28 149.02 1.28L149.02 1.28L149.02 1.28Q146.11 1.28 143.74 0.51L143.74 0.51L143.74 0.51Q141.38-0.26 139.87-1.92ZM153.38-27.90L153.38-27.90L153.38-27.90Q152.64-26.75 152-24.80L152-24.80L152-24.80Q151.36-22.85 150.30-17.63L150.30-17.63L150.30-17.63Q149.25-12.42 149.25-8.70L149.25-8.70L149.25-8.70Q149.25-4.99 149.82-3.90L149.82-3.90L149.82-3.90Q150.40-2.82 151.42-2.82L151.42-2.82L151.42-2.82Q153.47-2.82 154.98-4.77L154.98-4.77L154.98-4.77Q156.48-6.72 157.06-10.18L157.06-10.18L160.45-28.93L160.45-28.93Q159.10-30.08 157.54-30.08L157.54-30.08L157.54-30.08Q155.97-30.08 155.04-29.57L155.04-29.57L155.04-29.57Q154.11-29.06 153.38-27.90ZM223.36 1.28L223.36 1.28L223.36 1.28Q215.62 1.28 215.62-4.74L215.62-4.74L215.62-4.74Q215.62-7.36 216.74-12.45L216.74-12.45L216.74-12.45Q217.86-17.54 218.24-19.58L218.24-19.58L218.24-19.58Q219.14-24.26 219.14-25.73L219.14-25.73L219.14-25.73Q219.14-28.99 216.70-28.99L216.70-28.99L216.70-28.99Q215.10-28.99 213.57-26.78L213.57-26.78L213.57-26.78Q212.03-24.58 211.33-20.16L211.33-20.16L207.36 0L194.88 1.28L198.34-16.13L198.34-16.13Q198.91-19.01 199.42-22.27L199.42-22.27L199.42-22.27Q199.94-25.54 199.94-26.05L199.94-26.05L199.94-26.05Q199.94-28.99 197.76-28.99L197.76-28.99L197.76-28.99Q196.29-28.99 194.69-26.82L194.69-26.82L194.69-26.82Q193.09-24.64 192.19-20.16L192.19-20.16L188.29 0L175.68 1.28L182.40-32.64L192.83-33.92L191.74-27.46L191.74-27.46Q193.41-30.91 196.48-32.42L196.48-32.42L196.48-32.42Q199.55-33.92 204.35-33.92L204.35-33.92L204.35-33.92Q207.10-33.92 208.90-32.58L208.90-32.58L208.90-32.58Q210.69-31.23 211.26-29.06L211.26-29.06L211.26-29.06Q212.35-31.30 215.14-32.61L215.14-32.61L215.14-32.61Q217.92-33.92 221.34-33.92L221.34-33.92L221.34-33.92Q224.77-33.92 226.46-33.18L226.46-33.18L226.46-33.18Q228.16-32.45 229.18-31.23L229.18-31.23L229.18-31.23Q230.91-28.99 230.91-24.90L230.91-24.90L230.91-24.90Q230.91-20.86 229.18-12.48L229.18-12.48L229.18-12.48Q228.29-8.38 228.29-6.88L228.29-6.88L228.29-6.88Q228.29-5.38 229.15-4.48L229.15-4.48L229.15-4.48Q230.02-3.58 231.30-3.46L231.30-3.46L231.30-3.46Q230.66-1.28 228.45 0L228.45 0L228.45 0Q226.24 1.28 223.36 1.28ZM251.58-3.52L251.58-3.52L251.58-3.52Q249.60 1.28 243.26 1.28L243.26 1.28L243.26 1.28Q240.00 1.28 237.95-0.96L237.95-0.96L237.95-0.96Q236.22-2.94 236.22-4.93L236.22-4.93L236.22-4.93Q236.22-10.11 238.59-20.22L238.59-20.22L240.96-32.64L253.95-33.92L250.05-13.70L250.05-13.70Q248.96-8.96 248.96-7.30L248.96-7.30L248.96-7.30Q248.96-3.65 251.58-3.52ZM242.11-41.54L242.11-41.54L242.11-41.54Q242.11-44.03 244.19-45.38L244.19-45.38L244.19-45.38Q246.27-46.72 249.28-46.72L249.28-46.72L249.28-46.72Q252.29-46.72 254.11-45.38L254.11-45.38L254.11-45.38Q255.94-44.03 255.94-41.54L255.94-41.54L255.94-41.54Q255.94-39.04 253.92-37.76L253.92-37.76L253.92-37.76Q251.90-36.48 248.90-36.48L248.90-36.48L248.90-36.48Q245.89-36.48 244.00-37.76L244.00-37.76L244.00-37.76Q242.11-39.04 242.11-41.54ZM276.16-22.46L276.16-22.46L276.16-22.46Q277.06-24.83 277.06-26.88L277.06-26.88L277.06-26.88Q277.06-30.66 273.98-30.66L273.98-30.66L273.98-30.66Q272.38-30.66 271.07-29.22L271.07-29.22L271.07-29.22Q269.76-27.78 269.76-25.98L269.76-25.98L269.76-25.98Q269.76-24.70 270.78-23.68L270.78-23.68L270.78-23.68Q272.26-22.27 276.03-19.97L276.03-19.97L276.03-19.97Q279.81-17.66 281.25-15.78L281.25-15.78L281.25-15.78Q282.69-13.89 282.69-11.30L282.69-11.30L282.69-11.30Q282.69-8.70 281.44-6.34L281.44-6.34L281.44-6.34Q280.19-3.97 277.95-2.30L277.95-2.30L277.95-2.30Q273.15 1.28 265.47 1.28L265.47 1.28L265.47 1.28Q261.31 1.28 258.11-0.90L258.11-0.90L258.11-0.90Q254.91-3.01 254.91-5.50L254.91-5.50L254.91-5.50Q254.91-8 256.74-9.47L256.74-9.47L256.74-9.47Q258.56-10.94 261.25-10.94L261.25-10.94L261.25-10.94Q263.94-10.94 265.60-9.92L265.60-9.92L265.60-9.92Q264.77-7.81 264.77-6.40L264.77-6.40L264.77-6.40Q264.77-2.18 268.35-2.18L268.35-2.18L268.35-2.18Q269.89-2.18 270.91-3.14L270.91-3.14L270.91-3.14Q271.94-4.10 271.94-5.76L271.94-5.76L271.94-5.76Q271.94-9.02 266.43-12.48L266.43-12.48L266.43-12.48Q261.95-15.42 260.93-16.58L260.93-16.58L260.93-16.58Q259.20-18.62 259.20-21.18L259.20-21.18L259.20-21.18Q259.20-23.74 260.42-26.18L260.42-26.18L260.42-26.18Q261.63-28.61 263.87-30.34L263.87-30.34L263.87-30.34Q268.54-33.92 276.67-33.92L276.67-33.92L276.67-33.92Q280.83-33.92 283.30-32.26L283.30-32.26L283.30-32.26Q285.76-30.59 285.76-27.78L285.76-27.78L285.76-27.78Q285.76-24.96 284.06-23.36L284.06-23.36L284.06-23.36Q282.37-21.76 279.30-21.76L279.30-21.76L279.30-21.76Q277.18-21.76 276.16-22.46Z" fill="#ccc"></path></g></g><style>text {
  font-size: 64px;
  font-family: Arial Black;
  dominant-baseline: central;
  text-anchor: middle;
}</style></svg>